<!--
  Body silhouette, used as a CSS mask-image (fill color here is
  irrelevant to a mask: only alpha/luminance matters, so this is
  solid white with no gradient/stroke baked in). The real fill
  (the gradient-masterclass custom property) and 0.3 layer opacity
  are applied via CSS on the element this masks, not here; see
  page.tsx.

  Source: Figma file Ok6qYziHfAl50GRs0YRC6O, node 8802:8043 ("B").
  Path data is the untouched original; only the fill/stroke/opacity
  were stripped for mask use.
-->
<svg xmlns="http://www.w3.org/2000/svg" viewBox="0 0 168.258 396" width="168.258" height="396" fill="none">
  <path d="M167.453 209.66C166.348 208.3 164.119 203.09 163.123 201.364C162.127 199.639 158.411 193.815 155.557 191.094C154.355 189.947 153.106 188.769 152.677 187.164C150.797 180.131 148.727 163.984 147.494 151.323C146.591 142.05 144.45 136.165 142.898 132.961C141.907 130.914 141.222 128.662 141.197 126.387C141.074 115.018 137.651 104.044 137.771 101.247C137.903 98.1612 137.771 88.5372 137.771 88.5372C137.041 72.7413 128.679 69.6884 119.588 66.768C110.496 63.8477 99.4131 58.2727 97.7539 56.8129C96.0947 55.3531 96.0947 52.9635 96.0284 49.0478C95.9961 47.1523 96.3837 45.1938 96.9428 43.1355C98.0005 39.2414 101.591 35.3397 102.698 31.4594C103.514 28.5983 103.635 25.5213 102.731 25.0223C102.109 24.6799 101.359 23.9623 101.409 23.2547C101.766 18.281 101.358 12.9039 99.0148 8.62943C94.1043 -0.330455 84.5473 0.00158092 84.5473 0.00158092H83.7092C83.7092 0.00158092 74.1531 -0.330455 69.2417 8.62943C66.8986 12.9039 66.4902 18.2811 66.8472 23.2549C66.898 23.9631 66.1476 24.6792 65.5259 25.0223C64.6219 25.5213 64.743 28.5977 65.559 31.4586C66.6657 35.3392 70.2559 39.2416 71.3137 43.1358C71.8728 45.194 72.2604 47.1523 72.2281 49.0478C72.1619 52.9635 72.1619 55.3531 70.5027 56.8129C68.8435 58.2727 57.7606 63.8485 48.6689 66.768C39.5773 69.6884 31.215 72.7413 30.4856 88.5372C30.4856 88.5372 30.3532 98.1612 30.4856 101.247C30.6057 104.044 27.1827 115.018 27.0591 126.388C27.0343 128.662 26.3497 130.914 25.3587 132.961C23.8075 136.164 21.6664 142.05 20.7631 151.323C19.5298 163.986 17.4588 180.132 15.579 187.164C15.1502 188.769 13.902 189.947 12.7006 191.094C9.84662 193.815 6.13082 199.639 5.13479 201.364C4.13961 203.09 1.90893 208.3 0.804212 209.66C-0.489866 211.253 -0.312393 213.603 1.99895 212.497C4.28821 211.402 6.59445 208.731 7.5234 207.138C8.0507 206.234 8.93823 206.655 8.81591 207.695C8.42764 210.995 7.77353 216.581 7.53783 218.753C7.15657 222.271 5.83192 227.081 7.65671 227.579C9.66236 228.126 10.1786 225.455 10.5106 223.397C10.8427 221.34 12.9018 211.45 13.5565 210.854C14.3725 210.111 14.0133 211.263 13.8291 213.642C13.7671 214.447 13.497 218.487 13.0988 221.075C12.7006 223.663 11.3734 229.438 14.1611 229.106C16.9488 228.774 17.6119 213.177 18.0764 212.049C18.5409 210.92 18.9391 211.386 18.6734 214.173C18.5893 215.054 17.1466 225.521 17.6782 227.645C18.2089 229.769 20.2663 229.437 20.9303 226.716C21.5944 223.995 22.2575 212.978 22.722 212.181C23.1865 211.385 23.319 212.845 23.1865 214.836C23.0888 216.293 22.2575 224.26 23.8505 224.592C25.4435 224.924 26.0905 223.945 26.5321 218.121C26.9193 213.022 26.9694 210.19 27.2352 206.938C27.4345 204.498 27.6707 198.51 27.1041 194.438C26.8051 192.289 26.4706 190.045 27.0113 187.945C27.9373 184.347 29.7037 178.345 32.3452 172.891C36.4601 164.395 42.5654 149.528 42.2996 142.228C42.1214 137.335 45.4013 122.665 47.664 113.441C47.9356 112.334 49.6478 112.437 49.8654 113.556C51.7233 123.113 54.511 134.661 54.1127 141.829C53.7145 148.998 52.918 159.882 52.1215 164.129C51.325 168.377 46.547 184.836 46.6794 205.146C46.8119 225.455 49.5996 249.413 50.9268 254.458C52.254 259.502 52.6361 264.501 52.2387 267.952C51.8839 271.027 51.2259 277.455 51.6496 282.482C51.7489 283.66 51.7173 284.844 51.5107 286.008C50.761 290.231 49.207 301.716 51.1926 316.248C53.7145 334.698 58.2268 355.008 58.2268 357.131C58.2268 357.692 58.1672 358.252 58.0419 358.799C57.8783 359.513 57.7088 360.226 57.5517 360.941C57.2885 362.138 57.1119 363.336 57.0788 364.564C57.0465 365.777 57.1144 366.987 57.1356 368.2C57.1406 368.49 57.1411 368.78 57.1365 369.069C57.1188 370.178 56.8067 371.261 56.2512 372.221C55.8377 372.935 55.3951 373.632 54.9457 374.311C53.9225 375.856 52.7652 377.309 51.5883 378.739C50.4003 380.184 49.1878 381.608 48.055 383.096C47.492 383.836 46.9486 384.59 46.4391 385.368C45.9076 386.179 45.3072 387.032 45.1179 388.001C44.943 388.894 45.1968 389.797 46.0477 390.221C46.3268 390.361 46.5487 390.631 46.592 390.94C46.6052 391.034 46.6245 391.13 46.6506 391.226C46.7995 391.772 47.1579 392.238 47.6187 392.566C48.3891 393.114 49.2805 393.866 50.1897 394.125C50.7336 394.281 51.3134 394.19 51.8387 393.973C52.0648 393.88 52.3358 394.005 52.4476 394.223C52.8399 394.99 53.7153 395.318 54.5381 395.293C55.5112 395.263 56.3358 394.691 56.9836 394.004C57.2193 393.754 57.836 394.004 57.942 394.33C57.953 394.365 57.965 394.399 57.978 394.433C58.3321 395.361 59.3408 395.829 60.2681 395.96C61.1478 396.085 62.0377 395.909 62.8291 395.514C62.861 395.498 62.893 395.481 62.9251 395.464C63.4915 395.165 64.0383 394.819 64.5478 394.431C64.776 394.257 64.9907 394.067 65.1897 393.87C66.1263 392.94 66.7724 391.782 67.259 390.566C68.3374 387.873 68.6847 384.948 69.2477 382.121C69.3341 381.688 69.4233 381.252 69.519 380.816C69.5504 380.673 69.7587 380.568 69.8616 380.464C71.0691 379.239 71.5344 377.258 71.6787 375.599C71.8553 373.565 71.5463 371.537 71.1692 369.543C70.7702 367.426 70.3753 365.318 70.1248 363.177C69.8752 361.039 69.7376 358.889 69.6357 356.739C69.5797 355.557 69.5287 354.376 69.4786 353.194C69.4752 353.107 69.4701 353.021 69.4659 352.934C69.7079 349.652 69.9873 346.456 70.3048 343.723C71.632 332.307 76.2776 313.326 75.0829 303.503C73.8882 293.68 75.3436 268.593 76.6096 261.425C77.8295 254.514 83.5444 216.757 82.7634 203.708C82.7186 202.96 83.2627 202.301 84.0085 202.233C84.089 202.226 84.1701 202.226 84.2506 202.233C84.9964 202.301 85.5405 202.96 85.4957 203.708C84.7147 216.757 90.4296 254.514 91.6495 261.425C92.9147 268.593 94.3701 293.68 93.1762 303.503C91.9815 313.326 96.6271 332.307 97.9543 343.723C98.2719 346.456 98.5512 349.652 98.7932 352.934C98.789 353.021 98.7839 353.107 98.7805 353.194C98.7295 354.376 98.6794 355.557 98.6234 356.739C98.5215 358.889 98.3839 361.039 98.1343 363.177C97.8847 365.318 97.4898 367.426 97.0899 369.543C96.7137 371.537 96.4038 373.565 96.5804 375.599C96.7247 377.258 97.1901 379.24 98.3975 380.464C98.5007 380.568 98.7086 380.673 98.7401 380.816C98.8358 381.252 98.925 381.688 99.0114 382.121C99.5744 384.948 99.9217 387.874 101 390.566C101.488 391.782 102.133 392.94 103.069 393.87C103.267 394.066 103.48 394.255 103.707 394.428C104.219 394.819 104.769 395.168 105.339 395.467C105.37 395.483 105.4 395.499 105.43 395.514C106.221 395.909 107.11 396.085 107.991 395.96C108.918 395.829 109.926 395.36 110.281 394.433C110.294 394.399 110.306 394.365 110.317 394.33C110.423 394.004 111.04 393.754 111.275 394.004C111.923 394.691 112.748 395.263 113.721 395.293C114.544 395.318 115.419 394.99 115.812 394.223C115.923 394.004 116.194 393.88 116.42 393.973C116.946 394.19 117.526 394.28 118.069 394.125C118.978 393.866 119.87 393.114 120.641 392.566C121.102 392.238 121.46 391.772 121.609 391.226C121.635 391.13 121.654 391.034 121.668 390.94C121.711 390.63 121.932 390.361 122.211 390.221C123.062 389.797 123.316 388.895 123.141 388.001C122.952 387.032 122.352 386.179 121.82 385.368C121.311 384.59 120.767 383.836 120.204 383.096C119.071 381.607 117.859 380.183 116.671 378.739C115.494 377.309 114.337 375.857 113.313 374.311C112.865 373.634 112.423 372.938 112.011 372.225C111.453 371.262 111.141 370.176 111.123 369.064C111.118 368.776 111.119 368.488 111.123 368.2C111.145 366.987 111.213 365.777 111.18 364.564C111.147 363.337 110.971 362.139 110.708 360.941C110.551 360.225 110.382 359.512 110.219 358.798C110.093 358.252 110.033 357.692 110.033 357.131C110.033 355.007 114.546 334.698 117.067 316.248C119.054 301.716 117.5 290.231 116.75 286.008C116.544 284.844 116.512 283.66 116.611 282.482C117.035 277.455 116.376 271.027 116.022 267.952C115.624 264.501 116.006 259.502 117.333 254.458C118.66 249.413 121.448 225.454 121.581 205.146C121.713 184.837 116.935 168.377 116.138 164.129C115.342 159.882 114.545 148.998 114.147 141.829C113.749 134.661 116.537 123.113 118.395 113.556C118.612 112.437 120.324 112.334 120.596 113.441C122.859 122.665 126.139 137.335 125.96 142.228C125.695 149.528 131.801 164.395 135.915 172.891C138.556 178.345 140.322 184.346 141.248 187.944C141.789 190.045 141.454 192.29 141.155 194.439C140.589 198.511 140.825 204.499 141.025 206.938C141.291 210.191 141.341 213.022 141.728 218.121C142.17 223.945 142.817 224.924 144.409 224.592C146.002 224.26 145.171 216.293 145.073 214.836C144.94 212.844 145.073 211.385 145.538 212.181C146.002 212.978 146.666 223.995 147.33 226.716C147.994 229.437 150.05 229.769 150.582 227.645C151.113 225.521 149.671 215.054 149.587 214.173C149.321 211.385 149.719 210.92 150.184 212.049C150.648 213.177 151.312 228.774 154.099 229.106C156.886 229.438 155.559 223.663 155.16 221.075C154.762 218.487 154.493 214.447 154.43 213.642C154.246 211.263 153.887 210.112 154.703 210.854C155.357 211.45 157.416 221.34 157.748 223.397C158.08 225.455 158.597 228.126 160.602 227.579C162.427 227.081 161.103 222.271 160.721 218.753C160.486 216.58 159.832 210.994 159.443 207.695C159.321 206.655 160.208 206.234 160.736 207.138C161.665 208.731 163.971 211.402 166.26 212.497C168.57 213.603 168.747 211.252 167.453 209.66Z" fill="#ffffff"/>
</svg>
